<svg version="1.1" id="Layer_1" xmlns="http://www.w3.org/2000/svg" xmlns:xlink="http://www.w3.org/1999/xlink" x="0px" y="0px"
	 width="100%" viewBox="0 0 512 512" enable-background="new 0 0 512 512" xml:space="preserve">
<path fill="#c9a869" opacity="1.000000" stroke="none" 
	d="
M297.847290,289.147522 
	C302.019684,291.548370 306.307465,291.756744 310.686951,291.706635 
	C317.888763,291.624176 325.092224,291.684296 332.960052,291.684296 
	C331.482330,294.873596 329.618164,294.265656 328.144379,294.270996 
	C315.978333,294.315063 303.576019,295.770447 291.705322,293.891754 
	C276.817078,291.535461 262.247833,294.751465 247.479462,293.802734 
	C238.449188,293.222656 229.031433,292.883789 219.834579,294.260376 
	C218.399429,294.475189 216.759201,294.340881 215.403885,293.846710 
	C212.897537,292.932800 212.414551,291.324219 214.666595,289.446320 
	C215.048248,289.128082 215.464249,288.830688 215.907120,288.609070 
	C239.391418,276.856171 247.537277,255.147415 252.674149,231.612808 
	C254.535126,223.086700 254.592896,214.430847 252.288147,205.895432 
	C252.131699,205.315979 251.685211,204.814865 250.772125,203.239670 
	C249.844040,209.798462 249.243927,215.331070 248.254761,220.793213 
	C244.995438,238.790985 240.131805,256.251495 229.027893,271.218262 
	C218.196060,285.818298 203.161774,292.723785 185.317841,294.076141 
	C184.332214,294.150848 183.283279,294.146851 182.453369,292.270660 
	C209.081085,285.828156 219.827637,263.894196 231.378189,242.960083 
	C229.951508,240.528336 228.004013,240.235672 226.424362,239.420792 
	C208.530899,230.190140 196.590714,216.426834 194.778870,195.787231 
	C192.752487,172.703430 202.222458,154.952179 221.723007,142.678833 
	C244.888931,128.098526 279.931000,129.330765 299.493011,145.239349 
	C301.061829,146.515152 304.266449,147.652435 301.713928,150.617844 
	C299.516205,153.171051 297.455780,152.085907 295.375763,150.054810 
	C287.644775,142.505554 278.383270,137.607681 267.759979,135.943985 
	C240.955643,131.746262 217.460297,142.511673 205.537125,169.247650 
	C195.382324,192.018280 203.282684,219.770660 223.676666,234.284119 
	C232.302261,240.422562 232.649734,240.302429 236.814621,230.513535 
	C240.597229,221.623077 243.855576,212.548294 246.899384,203.379456 
	C248.307098,199.138977 248.342590,195.354614 245.967972,191.460648 
	C244.681152,189.350479 243.760437,186.964310 243.010223,184.596298 
	C242.410797,182.704224 242.106873,180.528793 244.038452,179.083878 
	C245.860809,177.720688 247.889114,178.189819 249.713043,179.156555 
	C251.020309,179.849442 252.364960,180.674332 253.333542,181.760757 
	C255.244293,183.903961 256.889679,183.776703 258.750000,181.788422 
	C259.421997,181.070221 260.259857,180.447403 261.130768,179.986542 
	C263.511871,178.726547 266.150665,177.320404 268.627441,179.160294 
	C271.447113,181.254868 270.183746,184.439804 268.766205,186.410095 
	C262.569000,195.023956 263.978943,203.915283 266.106842,213.450760 
	C269.109436,226.905746 270.854767,240.636551 273.379242,254.204468 
	C275.458832,265.381439 279.543762,275.649261 288.201263,283.566071 
	C290.038513,285.246155 291.841278,286.412048 294.420532,284.946014 
	C314.211792,273.696655 319.734955,243.317719 300.482361,227.580139 
	C295.314789,223.356064 289.382111,221.944763 282.773712,222.092575 
	C279.194885,222.172607 275.290924,223.216171 271.753082,220.836975 
	C273.276733,218.457687 275.227386,219.456406 276.916992,219.517670 
	C285.665436,219.834839 294.301361,219.760986 301.649567,213.897385 
	C310.144012,207.119141 313.677917,194.631912 310.197449,183.555450 
	C306.825134,172.823334 297.873932,165.590805 286.524139,165.219543 
	C275.870697,164.871078 265.196228,165.195709 254.531555,165.134155 
	C252.646927,165.123276 250.501190,165.773163 248.932755,163.865646 
	C249.436844,161.755325 251.214554,162.149231 252.527863,162.146408 
	C265.183044,162.119324 277.858490,161.634949 290.484283,162.675720 
	C305.683472,163.928604 316.458862,173.763611 318.200378,187.504166 
	C320.185486,203.166779 313.837219,213.678040 298.865021,219.530151 
	C298.118652,219.821899 297.391113,220.161926 296.592621,220.506271 
	C297.414032,222.006302 298.774536,222.283890 299.956146,222.800613 
	C325.254517,233.864166 325.041199,268.888641 304.771271,283.158508 
	C302.305267,284.894562 298.355499,285.048309 297.847290,289.147522 
M220.218399,289.741058 
	C220.118546,289.874359 219.977249,289.994781 219.930588,290.144653 
	C219.884735,290.291931 219.905930,290.605133 219.947159,290.613892 
	C225.032150,291.699707 229.818298,291.116089 234.201141,288.113312 
	C240.002045,284.138977 244.072845,278.709076 247.119339,272.502441 
	C257.410919,251.535355 259.683929,228.878098 260.537476,206.030640 
	C260.766235,199.906631 261.149872,194.206345 264.542297,188.882263 
	C265.829742,186.861725 267.734375,184.494400 266.073273,181.557388 
	C261.082672,181.279938 259.563110,186.553711 255.800873,187.789536 
	C252.238480,186.008087 250.958405,180.995239 245.816193,181.473343 
	C245.313522,184.509735 246.847336,186.774765 247.926590,189.125534 
	C250.629562,195.012924 254.101761,200.583984 255.386688,207.053436 
	C258.447510,222.464401 255.457977,237.237640 250.032074,251.557709 
	C244.146393,267.091187 235.893433,281.009735 220.218399,289.741058 
M239.301590,287.562317 
	C238.598419,288.576538 236.971970,289.050720 237.498886,291.138031 
	C251.251297,293.248322 251.114258,280.297150 256.697937,271.825623 
	C257.241394,279.641266 253.081558,284.511658 251.506348,290.623749 
	C259.698914,290.668243 267.233704,291.495789 276.125702,289.561707 
	C262.170563,279.168488 260.833099,264.415070 258.587646,249.957336 
	C254.326141,263.502289 250.314774,276.943481 239.301590,287.562317 
M269.611969,278.834290 
	C276.200500,287.860992 281.891754,290.535828 287.549622,286.673248 
	C274.972839,276.382904 271.612885,261.809631 269.135071,246.926910 
	C267.366547,236.304779 265.913177,225.631393 263.368805,214.217682 
	C262.342377,224.906448 262.054840,234.699066 262.055115,244.497665 
	C262.055420,256.230469 263.002838,267.789856 269.611969,278.834290 
M228.663055,254.040421 
	C221.640625,266.376587 213.720474,278.001648 201.789948,287.209290 
	C228.243225,280.926208 243.454330,243.625107 245.371964,216.921814 
	C240.415833,230.111557 235.177979,241.963974 228.663055,254.040421 
z"/>
<path fill="#c9a869" opacity="1.000000" stroke="none" 
	d="
M194.589905,324.656464 
	C195.600601,322.321686 196.431808,320.324371 197.350464,318.368103 
	C197.918564,317.158356 198.588242,315.814911 200.228271,316.093781 
	C202.197418,316.428680 202.178146,318.136932 202.184601,319.622833 
	C202.226456,329.274597 202.236176,338.926605 202.222763,348.578430 
	C202.220917,349.908508 202.166901,351.570709 200.469910,351.693512 
	C198.407700,351.842743 198.166351,349.966827 198.169662,348.517212 
	C198.184052,342.213348 198.353790,335.909943 198.451843,329.606140 
	C198.479721,327.813690 198.456100,326.020477 198.456100,322.831543 
	C192.610855,332.739929 190.347382,342.850525 184.602798,352.494476 
	C179.200485,343.074341 176.569611,333.473450 171.305466,324.800995 
	C171.305466,333.445068 171.305466,342.089172 171.305466,351.444855 
	C168.109177,347.845306 168.347351,319.999908 171.852585,314.804993 
	C176.481705,325.177765 180.790146,334.831940 185.417114,345.199890 
	C189.340515,338.416779 191.545624,331.549011 194.589905,324.656464 
z"/>
<path fill="#c9a869" opacity="1.000000" stroke="none" 
	d="
M286.785004,331.143768 
	C285.042633,333.600037 287.327942,334.228790 288.288239,335.321503 
	C293.279175,341.000641 291.297607,348.973267 284.180573,351.416779 
	C279.656189,352.970123 274.970032,352.269257 270.344147,352.093445 
	C268.212311,352.012390 267.700897,350.403351 267.702759,348.569122 
	C267.712555,338.769012 267.722473,328.968933 267.741943,319.168823 
	C267.745728,317.276917 268.478577,315.880249 270.563690,315.797729 
	C274.706024,315.633728 278.903961,315.101654 282.977142,316.041992 
	C290.529053,317.785492 292.238525,324.331451 286.785004,331.143768 
M282.288696,334.856018 
	C272.131409,333.012512 270.945282,334.005768 271.501923,343.900024 
	C271.558044,344.897614 271.598999,345.899139 271.725006,346.888916 
	C271.877319,348.085602 272.315582,349.102753 273.520294,349.683044 
	C276.567780,351.150909 283.844177,349.616882 285.589325,347.097473 
	C287.934937,343.711182 286.806976,338.573120 282.288696,334.856018 
M271.424225,323.320953 
	C271.941437,331.834991 273.818939,333.566254 280.712402,331.506470 
	C284.599213,330.345093 286.207886,327.454803 285.731110,323.438751 
	C285.156067,318.594818 281.696106,317.922943 277.747345,317.931488 
	C274.520660,317.938477 271.045105,317.547272 271.424225,323.320953 
z"/>
<path fill="#c9a869" opacity="1.000000" stroke="none" 
	d="
M354.946350,325.463440 
	C357.501984,333.381653 357.513977,340.693451 351.782257,346.822754 
	C345.583313,353.451721 337.352203,352.569794 329.361389,352.066864 
	C327.560822,351.953552 326.854980,350.506683 326.851837,348.879150 
	C326.832703,338.912445 326.849243,328.945526 326.910706,318.979034 
	C326.919342,317.579620 327.594238,316.490265 329.035309,315.919830 
	C337.547729,312.550201 349.862488,316.924072 354.946350,325.463440 
M331.245972,338.468201 
	C331.261200,341.124969 331.282501,343.781677 331.289581,346.438477 
	C331.294525,348.296967 331.898804,349.502808 333.974945,349.957184 
	C341.489014,351.601715 348.504333,347.841248 351.125580,340.605774 
	C355.811432,327.671234 348.587677,317.459564 334.942902,317.529327 
	C331.932709,317.544739 331.253693,319.016449 331.266144,321.538391 
	C331.292328,326.851959 331.257629,332.165802 331.245972,338.468201 
z"/>
<path fill="#c9a869" opacity="1.000000" stroke="none" 
	d="
M227.550812,329.927856 
	C225.574814,333.115356 222.595871,334.339081 219.498886,335.843262 
	C221.106018,341.943695 227.065201,345.401520 229.159409,352.260864 
	C223.568283,351.185638 222.368179,346.740417 219.695084,343.984314 
	C217.025513,341.231812 215.866760,336.940521 211.322052,335.511597 
	C209.231354,339.503448 210.552887,343.544189 210.174393,347.386475 
	C210.003693,349.119141 210.587524,351.630829 208.036636,351.698730 
	C205.424042,351.768311 205.810059,349.250061 205.798462,347.512848 
	C205.738388,338.517792 205.817184,329.521606 205.720139,320.527191 
	C205.684448,317.218170 206.844040,315.505035 210.382431,315.732269 
	C212.536469,315.870636 214.711548,315.638031 216.875534,315.672974 
	C226.216904,315.823853 229.656555,320.236084 227.550812,329.927856 
M220.631851,332.362793 
	C221.282776,331.853485 222.043167,331.436859 222.566269,330.819305 
	C225.278488,327.617218 225.480713,324.084015 223.112823,320.739044 
	C220.569244,317.145874 216.546844,316.804108 212.751678,317.702637 
	C208.580841,318.690125 210.383377,322.544830 210.038437,325.275818 
	C209.873871,326.578705 210.160294,327.932037 210.092865,329.254883 
	C209.909317,332.855865 211.866760,333.996613 215.071136,333.611267 
	C216.701233,333.415253 218.302826,332.982269 220.631851,332.362793 
z"/>
<path fill="#c9a869" opacity="1.000000" stroke="none" 
	d="
M293.712402,334.998383 
	C293.701111,329.672760 293.792419,324.843445 293.645599,320.021393 
	C293.545624,316.737762 295.057648,315.541809 298.156952,315.659912 
	C300.815613,315.761230 303.487457,315.563416 306.142334,315.705658 
	C311.713531,316.004242 315.322662,318.711609 316.161621,323.034454 
	C317.245087,328.616913 315.135254,332.303406 309.411072,334.823608 
	C308.533691,335.209869 307.651306,335.584839 306.495117,336.084320 
	C309.090271,341.859039 314.300781,345.649872 316.794739,351.263733 
	C313.724274,352.824524 312.559418,350.882385 311.399933,349.392517 
	C308.437073,345.585419 305.624817,341.661469 302.710022,337.816315 
	C301.797150,336.612122 300.705292,335.339386 299.004547,335.826569 
	C297.110626,336.369080 297.450470,338.158844 297.433655,339.608917 
	C297.402771,342.270538 297.477112,344.933197 297.481049,347.595490 
	C297.483368,349.171417 298.211578,351.531769 295.934540,351.649719 
	C293.257812,351.788330 293.819305,349.172729 293.773376,347.479370 
	C293.665161,343.487915 293.722931,339.491943 293.712402,334.998383 
M297.659668,322.450195 
	C297.729858,323.770477 297.825836,325.089996 297.865906,326.411194 
	C298.075806,333.327759 301.753510,335.548248 308.213379,332.488678 
	C311.615448,330.877411 312.914001,327.872894 312.344055,324.278503 
	C311.728271,320.395050 309.408356,317.881287 305.281860,318.048492 
	C302.353668,318.167145 298.182648,316.255310 297.659668,322.450195 
z"/>
<path fill="#c9a869" opacity="1.000000" stroke="none" 
	d="
M121.363350,352.080933 
	C111.530144,347.812103 106.992477,340.429565 108.234573,331.231079 
	C109.448044,322.244629 115.527245,316.048370 124.565300,315.006805 
	C130.566177,314.315247 135.673752,316.449341 139.694016,320.987488 
	C140.654968,322.072205 141.867386,323.252106 139.845139,325.433929 
	C132.324585,316.672943 123.776581,312.372955 115.293648,323.783417 
	C110.089241,330.783905 111.678497,341.048828 117.679054,346.713165 
	C123.998550,352.678589 129.153366,351.836792 141.383789,342.842133 
	C141.608948,349.891266 132.475220,354.243103 121.363350,352.080933 
z"/>
<path fill="#c9a869" opacity="1.000000" stroke="none" 
	d="
M362.078217,340.352966 
	C360.296936,343.930298 360.247192,347.972870 356.646973,350.292450 
	C360.214996,338.507721 364.223572,326.913452 369.164032,315.910278 
	C372.116455,316.437469 372.552002,317.984009 373.056061,319.340149 
	C376.523102,328.667694 379.960358,338.006653 383.335114,347.367920 
	C383.850067,348.796387 385.217804,350.794250 382.968445,351.653473 
	C380.879364,352.451416 380.312561,350.312805 379.690277,348.798767 
	C379.312164,347.878784 378.992828,346.934448 378.652771,345.998962 
	C375.926636,338.498993 370.243317,336.432007 362.078217,340.352966 
M368.523224,323.154694 
	C367.815796,325.009918 367.197998,326.905457 366.385284,328.713379 
	C363.005005,336.233154 362.584991,337.231934 372.862122,336.543335 
	C373.297577,336.514160 373.709259,336.129639 374.673981,335.629913 
	C372.696533,331.331085 372.772339,326.255280 368.523224,323.154694 
z"/>
<path fill="#c9a869" opacity="1.000000" stroke="none" 
	d="
M245.204773,332.148956 
	C246.374542,332.339264 247.264191,332.298309 247.872314,333.651062 
	C245.634583,334.917480 243.173172,334.359253 240.889496,334.336151 
	C236.738205,334.294250 235.178940,336.351501 235.497070,340.250702 
	C235.524094,340.581970 235.568604,340.911926 235.592087,341.243408 
	C236.209457,349.966187 236.209915,349.913055 245.071121,350.043365 
	C247.090195,350.073059 249.356583,349.288483 252.126556,352.034027 
	C245.354553,352.034027 239.582443,352.202911 233.829437,351.945190 
	C231.731750,351.851196 231.763535,349.650543 231.759048,347.976868 
	C231.734146,338.666382 231.723572,329.355804 231.738998,320.045319 
	C231.742050,318.193939 231.745651,315.975189 234.223953,315.893005 
	C239.892212,315.704987 245.570938,315.833557 251.267380,316.422333 
	C248.175522,318.662781 244.672073,318.001648 241.393692,317.861145 
	C237.123718,317.678192 235.429108,319.175507 235.433197,323.538940 
	C235.441208,332.089142 235.269333,332.089294 245.204773,332.148956 
z"/>
<path fill="#c9a869" opacity="1.000000" stroke="none" 
	d="
M148.336975,352.107544 
	C145.602432,351.257996 145.707840,349.314728 145.702927,347.493042 
	C145.678238,338.348480 145.758087,329.203094 145.654083,320.059662 
	C145.617477,316.840637 146.962402,315.574890 150.116119,315.644897 
	C155.121338,315.756042 160.130844,315.674561 165.141571,316.237610 
	C162.547638,318.741394 159.604477,317.630219 156.787704,317.468964 
	C150.718689,317.121582 149.805740,317.954468 149.871719,323.896667 
	C149.882782,324.893311 149.973068,325.918365 149.784576,326.882996 
	C148.880493,331.509674 150.825104,332.905365 155.263168,332.251282 
	C157.378220,331.939575 159.780792,331.520203 162.334167,333.447571 
	C159.264404,334.830200 156.621765,334.323425 154.096817,334.318634 
	C151.114975,334.312958 150.077499,335.662476 149.863541,338.533630 
	C149.025452,349.779785 149.115417,349.942230 160.352188,350.038727 
	C161.673630,350.050079 162.997406,350.164368 164.311432,350.309509 
	C164.544540,350.335266 164.734772,350.749359 165.397858,351.490509 
	C162.629654,352.868042 159.865616,352.177795 157.274155,352.275421 
	C154.453934,352.381653 151.624039,352.230743 148.336975,352.107544 
z"/>
<path fill="#c9a869" opacity="1.000000" stroke="none" 
	d="
M389.340881,352.123138 
	C386.885986,351.354980 386.763153,349.664032 386.759430,347.964111 
	C386.738953,338.634033 386.715698,329.303680 386.766846,319.973846 
	C386.775421,318.409424 386.458954,316.105347 388.885040,316.254852 
	C391.132477,316.393311 390.789673,318.653503 390.803345,320.228943 
	C390.876984,328.716400 390.945526,337.205444 390.849152,345.692047 
	C390.811707,348.992371 391.670197,350.547089 395.422607,350.246063 
	C398.772552,349.977295 402.315460,349.376587 405.633087,352.199463 
	C400.356293,352.199463 395.079498,352.199463 389.340881,352.123138 
z"/>
<path fill="#c9a869" opacity="1.000000" stroke="none" 
	d="
M323.290833,322.189697 
	C323.306580,331.107849 323.347931,339.551849 323.317596,347.995544 
	C323.311981,349.558990 323.682465,351.802429 321.266510,351.728638 
	C318.996399,351.659332 319.165985,349.527283 319.281281,347.899994 
	C319.902405,339.135345 319.491333,330.373474 319.311584,321.610107 
	C319.294678,320.786469 319.304443,319.946289 319.446198,319.139130 
	C319.665894,317.887848 319.587524,316.193878 321.439178,316.249908 
	C323.272430,316.305450 323.145264,317.944122 323.253601,319.233154 
	C323.322723,320.055817 323.282776,320.887665 323.290833,322.189697 
z"/>
</svg>

